<svg width="24" height="24" viewBox="0 0 24 24" fill="none" xmlns="http://www.w3.org/2000/svg">
<path d="M12 24L10.4375 22.4483C8.35417 20.4023 6.63542 18.6494 5.28125 17.1897C3.92708 15.7299 2.85938 14.431 2.07812 13.2931C1.29688 12.1552 0.755208 11.1149 0.453125 10.1724C0.151042 9.22989 0 8.26437 0 7.27586C0 5.22989 0.635417 3.50575 1.90625 2.10345C3.17708 0.701149 4.73958 0 6.59375 0C7.61458 0 8.60417 0.241379 9.5625 0.724138C10.5208 1.2069 11.3333 1.88506 12 2.75862C12.6667 1.88506 13.4792 1.2069 14.4375 0.724138C15.3958 0.241379 16.3854 0 17.4062 0C19.2604 0 20.8229 0.701149 22.0938 2.10345C23.3646 3.50575 24 5.22989 24 7.27586C24 8.26437 23.8542 9.21839 23.5625 10.1379C23.2708 11.0575 22.7344 12.0805 21.9531 13.2069C21.1719 14.3333 20.099 15.6379 18.7344 17.1207C17.3698 18.6034 15.625 20.4023 13.5 22.5172L12 24ZM12 20.6552C13.9375 18.7471 15.5312 17.1207 16.7812 15.7759C18.0312 14.431 19.026 13.2586 19.7656 12.2586C20.5052 11.2586 21.0208 10.3678 21.3125 9.58621C21.6042 8.8046 21.75 8.03448 21.75 7.27586C21.75 5.91954 21.3333 4.78161 20.5 3.86207C19.6667 2.94253 18.6354 2.48276 17.4062 2.48276C16.6771 2.48276 15.9948 2.64943 15.3594 2.98276C14.724 3.31609 14.1771 3.78161 13.7188 4.37931L12.625 5.7931H11.375L10.2812 4.37931C9.82292 3.78161 9.26562 3.31609 8.60938 2.98276C7.95312 2.64943 7.28125 2.48276 6.59375 2.48276C5.36458 2.48276 4.33333 2.94253 3.5 3.86207C2.66667 4.78161 2.25 5.91954 2.25 7.27586C2.25 8.03448 2.38542 8.78736 2.65625 9.53448C2.92708 10.2816 3.42188 11.1494 4.14062 12.1379C4.85938 13.1264 5.84896 14.2989 7.10938 15.6552C8.36979 17.0115 10 18.6782 12 20.6552Z" fill="#3C3C3C"/>
</svg>
