<svg width="24" height="24" viewBox="0 0 24 24" fill="none" xmlns="http://www.w3.org/2000/svg">
<path d="M7.1998 19.2V17.4H14.3998C15.2331 17.4 15.9415 17.1083 16.5248 16.525C17.1081 15.9417 17.3998 15.2333 17.3998 14.4C17.3998 13.5667 17.1081 12.8583 16.5248 12.275C15.9415 11.6917 15.2331 11.4 14.3998 11.4H8.2498L10.5748 13.725L9.2998 15L4.7998 10.5L9.2998 6L10.5748 7.275L8.2498 9.6H14.3998C15.7331 9.6 16.8665 10.0667 17.7998 11C18.7331 11.9333 19.1998 13.0667 19.1998 14.4C19.1998 15.7333 18.7331 16.8667 17.7998 17.8C16.8665 18.7333 15.7331 19.2 14.3998 19.2H7.1998Z" fill="#1F1F1F"/>
</svg>
