<svg width="24" height="24" viewBox="0 0 24 24" fill="none" xmlns="http://www.w3.org/2000/svg">
<path d="M4.08331 2C4.08331 0.895431 3.16923 0 2.04166 0C0.914081 0 0 0.895431 0 2V22C0 23.1046 0.914081 24 2.04166 24C3.16923 24 4.08331 23.1046 4.08331 22V2Z" fill="#3C3C3C"/>
<path d="M11.0833 2C11.0833 0.895431 10.1692 0 9.04162 0C7.91405 0 6.99997 0.895431 6.99997 2V22C6.99997 23.1046 7.91405 24 9.04162 24C10.1692 24 11.0833 23.1046 11.0833 22V2Z" fill="#3C3C3C"/>
<path fill-rule="evenodd" clip-rule="evenodd" d="M18.0103 1.78684C17.6844 0.729425 16.5451 0.131071 15.4657 0.450377C14.3862 0.769682 13.7754 1.88573 14.1014 2.94314L20.0033 22.0893C20.3293 23.1467 21.4686 23.745 22.548 23.4257C23.6274 23.1064 24.2382 21.9904 23.9123 20.933L18.0103 1.78684ZM15.668 1.10681C16.3774 0.896986 17.126 1.29019 17.3402 1.98506L23.2422 21.1312C23.4564 21.826 23.055 22.5595 22.3456 22.7693C21.6363 22.9791 20.8876 22.5859 20.6734 21.891L14.7715 2.74492C14.5573 2.05005 14.9587 1.31664 15.668 1.10681Z" fill="#3C3C3C"/>
</svg>
