<svg width="24" height="24" viewBox="0 0 24 24" fill="none" xmlns="http://www.w3.org/2000/svg">
<path d="M20.0374 21.3332H15.3707C14.6546 21.3332 14.0744 20.7976 14.0744 20.1366V15.8289C14.0744 15.3 13.6103 14.8716 13.0374 14.8716H10.9633C10.3903 14.8716 9.92625 15.3 9.92625 15.8289V20.1366C9.92625 20.7976 9.34603 21.3332 8.62995 21.3332H3.96329C3.24721 21.3332 2.66699 20.7976 2.66699 20.1366V11.0009C2.66699 9.90055 3.21351 8.86097 4.14944 8.18035L11.5186 2.82014C11.8012 2.61529 12.1994 2.61529 12.4815 2.82014L19.8517 8.18035C20.7877 8.86097 21.3337 9.90008 21.3337 11V20.1366C21.3337 20.7976 20.7534 21.3332 20.0374 21.3332Z" fill="#3C3C3C"/>
</svg>
